<svg xmlns="http://www.w3.org/2000/svg" version="1.1" xmlns:xlink="http://www.w3.org/1999/xlink" xmlns:svgjs="http://svgjs.dev/svgjs" width="1000" height="222" viewBox="0 0 1000 222"><g transform="matrix(1,0,0,1,-0.6060606060606233,0.03150384074227475)"><svg viewBox="0 0 396 88" data-background-color="#001f3f" preserveAspectRatio="xMidYMid meet" height="222" width="1000" xmlns="http://www.w3.org/2000/svg" xmlns:xlink="http://www.w3.org/1999/xlink"><g id="tight-bounds" transform="matrix(1,0,0,1,0.2400000000000091,-0.012488008942881379)"><svg viewBox="0 0 395.52 88.02497601788578" height="88.02497601788578" width="395.52"><g><svg viewBox="0 0 534.7461977905798 119.01047035844306" height="88.02497601788578" width="395.52"><g transform="matrix(1,0,0,1,139.22619779057987,35.15649465877543)"><svg viewBox="0 0 395.52 48.69748104089219" height="48.69748104089219" width="395.52"><g id="textblocktransform"><svg viewBox="0 0 395.52 48.69748104089219" height="48.69748104089219" width="395.52" id="textblock"><g><svg viewBox="0 0 395.52 48.69748104089219" height="48.69748104089219" width="395.52"><g transform="matrix(1,0,0,1,0,0)"><svg width="395.52" viewBox="-0.7999999999999998 -38.9 337.23 42.4" height="48.69748104089219" data-palette-color="#ffffff"><path d="M19.05 0.5L19.05 0.5Q16.1 0.5 13.13-0.35 10.15-1.2 7.68-3.23 5.2-5.25 3.7-8.78 2.2-12.3 2.2-17.7L2.2-17.7Q2.2-23.15 4.33-27.23 6.45-31.3 10.15-33.6 13.85-35.9 18.55-35.9L18.55-35.9Q20.8-35.9 22.88-35.5 24.95-35.1 26.05-34.6L26.05-34.6 31.6-29.55 28.1-24.3 19.55-28.7Q16.75-28.7 14.5-27.35 12.25-26 10.93-23.53 9.6-21.05 9.6-17.7L9.6-17.7Q9.6-13.85 10.98-11.35 12.35-8.85 14.75-7.63 17.15-6.4 20.1-6.4L20.1-6.4Q23.1-6.4 25.25-6.93 27.4-7.45 28.85-8.13 30.3-8.8 31.05-9.3L31.05-9.3 31.05-2.5Q29.65-1.55 26.78-0.53 23.9 0.5 19.05 0.5ZM50.05 0.5L50.05 0.5Q47.25 0.5 44.57-0.28 41.9-1.05 39.75-3.05 37.6-5.05 36.35-8.6 35.1-12.15 35.1-17.7L35.1-17.7Q35.1-23.25 36.35-26.8 37.6-30.35 39.75-32.35 41.9-34.35 44.57-35.13 47.25-35.9 50.05-35.9L50.05-35.9Q53-35.9 55.67-35.1 58.35-34.3 60.45-32.3 62.55-30.3 63.77-26.75 65-23.2 65-17.7L65-17.7Q65-12.2 63.77-8.65 62.55-5.1 60.45-3.1 58.35-1.1 55.67-0.3 53 0.5 50.05 0.5ZM50.05-6.5L50.05-6.5Q53.2-6.5 54.8-7.83 56.4-9.15 56.97-11.68 57.55-14.2 57.55-17.7L57.55-17.7Q57.55-21.25 56.97-23.75 56.4-26.25 54.8-27.58 53.2-28.9 50.05-28.9L50.05-28.9Q46.95-28.9 45.32-27.55 43.7-26.2 43.15-23.7 42.6-21.2 42.6-17.7L42.6-17.7Q42.6-14.25 43.15-11.73 43.7-9.2 45.32-7.85 46.95-6.5 50.05-6.5ZM82.1 0L71.2 0 71.2-27.35 70.2-32.35 71.2-35.4 82.1-35.4Q85.7-35.4 89.02-34.73 92.35-34.05 94.97-32.2 97.6-30.35 99.12-26.9 100.65-23.45 100.65-17.95L100.65-17.95Q100.65-12.45 99.1-8.93 97.55-5.4 94.9-3.45 92.25-1.5 88.92-0.75 85.6 0 82.1 0L82.1 0ZM78.3-28.9L78.3-6.5 83.6-6.5Q88.8-6.5 91-9.58 93.2-12.65 93.2-17.95L93.2-17.95Q93.2-23.25 90.97-26.08 88.75-28.9 83.6-28.9L83.6-28.9 78.3-28.9ZM130.74 0L106.84 0 105.84-3 106.84-8 106.84-35.4 129.54-35.4 132.04-33.9 129.24-28.4 124.24-28.9 113.74-28.9 113.74-21.15 127.24-21.15 127.24-14.9 122.34-14.9 113.74-15.4 113.74-6.5 129.74-6.5 133.69-3.2 130.74 0ZM151.74 0.5L151.74 0.5Q148.79 0.5 145.81-0.35 142.84-1.2 140.37-3.23 137.89-5.25 136.39-8.78 134.89-12.3 134.89-17.7L134.89-17.7Q134.89-23.15 137.01-27.23 139.14-31.3 142.84-33.6 146.54-35.9 151.24-35.9L151.24-35.9Q153.49-35.9 155.56-35.5 157.64-35.1 158.74-34.6L158.74-34.6 164.29-29.55 160.79-24.3 152.24-28.7Q149.44-28.7 147.19-27.35 144.94-26 143.62-23.53 142.29-21.05 142.29-17.7L142.29-17.7Q142.29-13.85 143.66-11.35 145.04-8.85 147.44-7.63 149.84-6.4 152.79-6.4L152.79-6.4Q155.79-6.4 157.94-6.93 160.09-7.45 161.54-8.13 162.99-8.8 163.74-9.3L163.74-9.3 163.74-2.5Q162.34-1.55 159.47-0.53 156.59 0.5 151.74 0.5ZM173.89 0L166.59 0 169.49-9.45 169.49-14.3 172.69-15.8 179.19-35.35 189.04-35.35 197.09-12.95 200.94-5.85 200.94 0 194.09 0 191.09-9 176.54-9 173.89 0ZM183.49-28.75L179.34-15.2 188.84-15.2 184.54-28.75 183.49-28.75ZM212.94 0L205.44 0 205.44-27.35 204.44-32.35 205.49-35.35 213.03-35.35 223.84-14.35 224.84-14.35 233.94-35.35 241.88-35.35 242.38-32.35 241.88-27.55 241.88 0 234.84 0 234.99-4.25 234.99-22.2 234.44-22.2 232.74-18.05 226.94-5 220.94-5 212.94-22.2 212.44-22.2 212.44-18.15 212.94 0ZM256.38 0L249.38 0 249.38-27.35 248.38-32.4 249.38-35.4 261.38-35.4Q265.03-35.4 267.96-34.27 270.88-33.15 272.61-30.48 274.33-27.8 274.33-23.1L274.33-23.1Q274.33-18.4 272.48-15.68 270.63-12.95 267.36-11.8 264.08-10.65 259.88-10.65L259.88-10.65 256.38-10.65 256.38-8.05 256.88-3.05 256.38 0ZM255.88-28.9L256.38-17 261.28-17Q264.58-17 265.78-18.73 266.98-20.45 266.98-23.1L266.98-23.1Q266.98-25.9 265.71-27.4 264.43-28.9 261.08-28.9L261.08-28.9 255.88-28.9ZM291.28 0.5L291.28 0.5Q286.13 0.5 283.2-1.2 280.28-2.9 279.06-6.23 277.83-9.55 277.83-14.35L277.83-14.35 277.83-27.35 277.88-32.4 277.83-35.4 284.93-35.4 284.93-13.85Q284.93-10.35 286.33-8.18 287.73-6 291.28-6L291.28-6Q294.83-6 296.31-8.03 297.78-10.05 297.78-13.85L297.78-13.85 297.78-35.4 304.73-35.4 304.73-14.35Q304.73-9.65 303.56-6.33 302.38-3 299.45-1.25 296.53 0.5 291.28 0.5ZM320.53 0.5L320.53 0.5Q316.68 0.5 313.98-0.53 311.28-1.55 309.93-2.7L309.93-2.7 309.93-9.6Q311.68-8.6 314.6-7.5 317.53-6.4 321.08-6.4L321.08-6.4Q323.38-6.4 324.5-7.3 325.63-8.2 325.63-9.75L325.63-9.75Q325.63-11.15 324.73-12.05 323.83-12.95 322.03-13.7 320.23-14.45 317.43-15.45L317.43-15.45Q313.43-16.9 311.23-19.2 309.03-21.5 309.03-25.4L309.03-25.4Q309.03-28.15 310.25-30.55 311.48-32.95 314.1-34.43 316.73-35.9 320.83-35.9L320.83-35.9Q322.43-35.9 324-35.77 325.58-35.65 326.68-35.45L326.68-35.45 332.33-31.3 329.83-26.2 320.68-29.45Q318.88-29.45 317.7-28.58 316.53-27.7 316.53-26.1L316.53-26.1Q316.53-24.1 318.2-23.05 319.88-22 322.93-21L322.93-21Q328.73-19.1 331.08-16.43 333.43-13.75 333.43-10.15L333.43-10.15Q333.43-7.25 332.23-4.83 331.03-2.4 328.2-0.95 325.38 0.5 320.53 0.5Z" opacity="1" transform="matrix(1,0,0,1,0,0)" fill="#ffffff" class="wordmark-text-0" data-fill-palette-color="primary" id="text-0"></path></svg></g></svg></g></svg></g></svg></g><g><svg viewBox="0 0 119.01047035844306 119.01047035844306" height="119.01047035844306" width="119.01047035844306"><g><svg></svg></g><g id="icon-0"><svg viewBox="0 0 119.01047035844306 119.01047035844306" height="119.01047035844306" width="119.01047035844306"><g><path d="M0 59.505c0-32.864 26.641-59.505 59.505-59.505 32.864 0 59.505 26.641 59.505 59.505 0 32.864-26.641 59.505-59.505 59.505-32.864 0-59.505-26.641-59.505-59.505zM59.505 115.149c30.731 0 55.644-24.913 55.644-55.644 0-30.731-24.913-55.644-55.644-55.644-30.731 0-55.644 24.913-55.644 55.644 0 30.731 24.913 55.644 55.644 55.644z" data-fill-palette-color="accent" fill="#8bd8bc" stroke="transparent"></path></g><g transform="matrix(1,0,0,1,24.66641572344232,43.62933018015096)"><svg viewBox="0 0 69.67763891155842 31.751809998141137" height="31.751809998141137" width="69.67763891155842"><g><svg xmlns="http://www.w3.org/2000/svg" xmlns:xlink="http://www.w3.org/1999/xlink" version="1.1" x="0" y="0" viewBox="5 29.49387475885969 90 41.012625348283166" enable-background="new 0 0 100 100" xml:space="preserve" height="31.751809998141137" width="69.67763891155842" class="icon-z$-0" data-fill-palette-color="accent" id="z$-0"><g fill="#8bd8bc" data-fill-palette-color="accent"><path d="M23.943 30.807L5 50.001l18.942 19.192c1.728 1.751 4.53 1.751 6.258 0.002 1.729-1.75 1.73-4.587 0.002-6.338L18.193 50.695l-3.624 2.289 15.634-15.841c0.864-0.875 1.295-2.021 1.295-3.168 0-1.147-0.433-2.295-1.297-3.17C28.473 29.056 25.671 29.057 23.943 30.807z" fill="#8bd8bc" data-fill-palette-color="accent"></path><path d="M76.057 30.808L95 50.001 76.058 69.193c-1.728 1.751-4.53 1.751-6.258 0.002-1.729-1.75-1.73-4.587-0.002-6.338l12.009-12.161 3.624 2.289L69.796 37.144c-0.864-0.875-1.295-2.021-1.295-3.168 0-1.147 0.433-2.295 1.297-3.17C71.527 29.056 74.329 29.057 76.057 30.808z" fill="#8bd8bc" data-fill-palette-color="accent"></path><path d="M60.899 32.352c-0.419-1.068-1.241-1.978-2.366-2.476-2.249-0.997-4.857 0.028-5.825 2.288l-13.82 32.062c-0.484 1.13-0.467 2.355-0.048 3.422 0.419 1.068 1.241 1.978 2.366 2.476 2.249 0.997 4.857-0.028 5.825-2.288l13.82-32.062C61.335 34.644 61.318 33.419 60.899 32.352z" fill="#8bd8bc" data-fill-palette-color="accent"></path></g></svg></g></svg></g></svg></g></svg></g></svg></g><defs></defs></svg><rect width="395.52" height="88.02497601788578" fill="none" stroke="none" visibility="hidden"></rect></g></svg></g></svg>